<?xml version="1.0" encoding="UTF-8"?>
<!-- Generator: visioncortex VTracer 0.6.3 -->
<svg version="1.1" xmlns="http://www.w3.org/2000/svg" width="128" height="128">
<path d="M0 0 C0.84 0.44 1.69 0.88 2.55 1.34 C3.45 1.8 4.36 2.27 5.28 2.75 C11.39 6.13 11.39 6.13 13.37 7.24 C15.06 8.18 16.75 9.11 18.44 10.05 C20.18 11.01 21.92 11.98 23.62 13 C27.28 15.16 30.89 16.91 34.84 18.48 C40.49 20.94 45.64 23.43 49.55 28.34 C52.7 36.47 52.33 45.31 52 53.9 C51.87 57.3 51.9 60.66 51.98 64.06 C52.38 83.56 52.38 83.56 47.97 89.46 C44.04 92.89 39.59 94.77 34.73 96.51 C31.54 97.72 28.86 99.4 25.96 101.2 C23.99 102.35 22.02 103.5 20.05 104.65 C19.06 105.23 18.07 105.81 17.05 106.41 C15.12 107.53 13.19 108.65 11.26 109.77 C9.48 110.8 7.72 111.84 5.95 112.89 C4.76 113.58 4.76 113.58 3.55 114.29 C2.51 114.91 2.51 114.91 1.45 115.53 C-0.45 116.34 -0.45 116.34 -3.82 115.77 C-6.45 114.34 -6.45 114.34 -9.45 112.34 C-9.67 109.55 -9.73 106.99 -9.63 104.21 C-9.61 103.08 -9.61 103.08 -9.59 101.93 C-9.56 100.06 -9.5 98.2 -9.45 96.34 C-8.33 96.8 -8.33 96.8 -7.2 97.27 C-6.29 97.63 -5.38 97.98 -4.45 98.34 C-3.86 98.59 -3.27 98.85 -2.67 99.11 C0.82 99.47 2.84 97.83 5.82 96.08 C6.42 95.73 7.02 95.38 7.64 95.02 C9.56 93.91 11.46 92.78 13.37 91.65 C14.64 90.91 15.91 90.17 17.18 89.43 C19.54 88.05 21.9 86.67 24.25 85.28 C27.55 83.34 27.55 83.34 29.49 82.55 C31.74 81.65 31.74 81.65 34.55 79.34 C35.59 76.08 35.51 72.93 35.46 69.54 C35.47 68.59 35.48 67.64 35.49 66.67 C35.53 63.64 35.51 60.61 35.49 57.59 C35.5 55.53 35.52 53.48 35.54 51.43 C35.58 46.4 35.58 41.37 35.55 36.34 C34.84 36.07 34.12 35.8 33.38 35.52 C30.56 34.34 27.98 32.98 25.32 31.47 C24.33 30.92 23.34 30.36 22.33 29.78 C21.31 29.2 20.29 28.62 19.24 28.02 C18.23 27.46 17.23 26.89 16.19 26.3 C15.2 25.74 14.21 25.18 13.19 24.6 C12.23 24.05 11.26 23.51 10.27 22.94 C7.19 21.12 4.26 19.12 1.38 17 C-0.51 16.11 -0.51 16.11 -2.77 16.99 C-5.87 18.55 -8.88 20.22 -11.88 21.96 C-12.49 22.31 -13.09 22.66 -13.71 23.02 C-15.62 24.12 -17.53 25.23 -19.45 26.34 C-21.96 27.8 -24.49 29.26 -27.01 30.71 C-28.12 31.36 -29.24 32.01 -30.39 32.67 C-33.45 34.34 -33.45 34.34 -38.45 36.34 C-38.45 50.53 -38.45 64.72 -38.45 79.34 C-36.8 80 -35.15 80.66 -33.45 81.34 C-32.11 81.99 -30.77 82.65 -29.45 83.34 C-29.49 82.09 -29.53 80.84 -29.57 79.56 C-29.72 74.93 -29.81 70.3 -29.89 65.67 C-29.93 63.66 -29.98 61.66 -30.05 59.66 C-30.15 56.78 -30.19 53.9 -30.23 51.01 C-30.27 50.12 -30.31 49.23 -30.35 48.31 C-30.35 45.75 -30.26 43.76 -29.45 41.34 C-27.06 39.04 -24.43 37.73 -21.45 36.34 C-20.6 35.81 -19.75 35.28 -18.87 34.73 C-16.51 33.27 -14.14 31.83 -11.76 30.4 C-10.93 29.88 -10.1 29.36 -9.25 28.83 C-8.44 28.35 -7.64 27.87 -6.81 27.37 C-6.09 26.93 -5.37 26.49 -4.63 26.04 C-1.56 25.05 -0.28 25.89 2.55 27.34 C6.5 29.41 10.36 31.63 14.24 33.84 C15.3 34.43 16.36 35.03 17.45 35.64 C18.46 36.21 19.46 36.78 20.5 37.37 C21.42 37.89 22.35 38.41 23.3 38.95 C25.55 40.34 25.55 40.34 27.55 42.34 C28.12 46.66 28.18 50.99 28.25 55.35 C28.29 56.79 28.34 58.23 28.42 59.67 C29.05 71.54 29.05 71.54 25.6 75.69 C23.01 77.53 20.41 78.94 17.55 80.34 C15.98 81.31 14.41 82.29 12.85 83.28 C11.34 84.16 9.82 85.03 8.3 85.9 C7.54 86.36 6.78 86.82 5.99 87.3 C0.4 90.49 0.4 90.49 -3.81 89.74 C-6.45 88.34 -6.45 88.34 -9.45 86.34 C-9.67 83.55 -9.73 80.99 -9.63 78.21 C-9.61 77.08 -9.61 77.08 -9.59 75.93 C-9.56 74.06 -9.5 72.2 -9.45 70.34 C-8.33 70.8 -8.33 70.8 -7.2 71.27 C-6.29 71.63 -5.38 71.98 -4.45 72.34 C-3.8 72.6 -3.15 72.87 -2.49 73.14 C0.66 73.45 2.53 72.07 5.24 70.52 C6.21 69.98 7.19 69.44 8.19 68.88 C10.66 67.55 10.66 67.55 11.55 65.34 C11.63 62.45 11.65 59.59 11.62 56.71 C11.61 55.91 11.61 55.11 11.6 54.28 C11.59 52.3 11.57 50.32 11.55 48.34 C10.8 48.05 10.05 47.77 9.27 47.48 C6.96 46.51 5.12 45.47 3.05 44.09 C-0.19 42.02 -0.19 42.02 -2.95 42.84 C-3.77 43.33 -4.6 43.83 -5.45 44.34 C-12.35 48.34 -12.35 48.34 -14.45 48.34 C-14.78 67.81 -15.11 87.28 -15.45 107.34 C-19.35 106.36 -22 105.07 -25.5 103.13 C-26.07 102.81 -26.65 102.49 -27.25 102.17 C-28.46 101.49 -29.68 100.81 -30.9 100.13 C-32.74 99.1 -34.58 98.08 -36.43 97.06 C-37.62 96.4 -38.81 95.73 -40 95.07 C-41.07 94.48 -42.13 93.88 -43.24 93.27 C-44.3 92.63 -45.35 91.99 -46.45 91.34 C-47.08 91.04 -47.71 90.74 -48.36 90.44 C-50.52 89.25 -51.89 88.26 -53.45 86.34 C-54.65 82.15 -54.73 78.03 -54.82 73.69 C-54.86 72.45 -54.9 71.21 -54.95 69.93 C-55.03 65.94 -55.04 61.95 -55.01 57.96 C-55.01 57.29 -55 56.62 -55 55.93 C-54.84 31.11 -54.84 31.11 -50.2 24.37 C-44.49 18.83 -37.64 16.66 -30.1 14.55 C-23.86 12.48 -18.62 8.82 -13.13 5.27 C-11.19 4.05 -9.24 2.85 -7.27 1.68 C-6.46 1.18 -5.64 0.67 -4.8 0.16 C-2.45 -0.66 -2.45 -0.66 0 0 Z " fill="#946AE2" transform="translate(65.44580078125,5.662841796875)"/>
<path d="M0 0 C4.57 2.24 9 4.71 13.45 7.19 C15.14 8.13 16.83 9.06 18.52 10 C20.26 10.97 22 11.93 23.7 12.95 C27.36 15.11 30.97 16.86 34.92 18.43 C40.57 20.9 45.72 23.38 49.63 28.29 C52.78 36.42 52.41 45.26 52.08 53.85 C51.95 57.25 51.98 60.62 52.06 64.01 C52.46 83.51 52.46 83.51 48.05 89.41 C44.12 92.84 39.67 94.72 34.81 96.46 C31.62 97.67 28.94 99.35 26.04 101.15 C24.07 102.3 22.1 103.45 20.13 104.6 C19.14 105.18 18.15 105.76 17.13 106.36 C15.2 107.48 13.27 108.61 11.34 109.72 C9.56 110.75 7.8 111.79 6.03 112.84 C5.24 113.3 4.44 113.76 3.63 114.24 C2.93 114.65 2.24 115.06 1.53 115.48 C-0.37 116.29 -0.37 116.29 -3.74 115.73 C-6.37 114.29 -6.37 114.29 -9.37 112.29 C-9.59 109.5 -9.65 106.94 -9.55 104.16 C-9.54 103.41 -9.53 102.65 -9.51 101.88 C-9.48 100.01 -9.42 98.15 -9.37 96.29 C-8.25 96.75 -8.25 96.75 -7.12 97.23 C-6.21 97.58 -5.3 97.93 -4.37 98.29 C-3.78 98.54 -3.19 98.8 -2.59 99.06 C0.9 99.42 2.92 97.78 5.9 96.03 C6.5 95.68 7.1 95.33 7.72 94.97 C9.64 93.86 11.54 92.73 13.45 91.6 C14.72 90.86 15.99 90.12 17.26 89.38 C19.62 88 21.98 86.62 24.33 85.23 C27.63 83.29 27.63 83.29 29.57 82.5 C31.82 81.6 31.82 81.6 34.63 79.29 C35.67 76.03 35.59 72.88 35.54 69.49 C35.55 68.54 35.56 67.59 35.57 66.62 C35.61 63.59 35.59 60.56 35.57 57.54 C35.58 55.48 35.6 53.43 35.62 51.38 C35.66 46.35 35.66 41.32 35.63 36.29 C34.92 36.02 34.2 35.75 33.46 35.47 C30.64 34.29 28.06 32.93 25.4 31.42 C24.41 30.87 23.42 30.31 22.41 29.74 C21.39 29.15 20.37 28.57 19.32 27.98 C18.31 27.41 17.31 26.84 16.27 26.25 C11.16 23.35 6.14 20.41 1.27 17.13 C-0.51 16.04 -0.51 16.04 -3.37 16.48 C-4.03 16.74 -4.69 17.01 -5.37 17.29 C-5.7 16.3 -6.03 15.31 -6.37 14.29 C-7.36 13.96 -8.35 13.63 -9.37 13.29 C-9.84 12.46 -10.31 11.64 -10.8 10.79 C-12.09 8.12 -12.09 8.12 -14.46 7.63 C-15.09 7.52 -15.72 7.4 -16.37 7.29 C-14.15 5.89 -11.92 4.52 -9.68 3.16 C-9.05 2.76 -8.43 2.37 -7.78 1.96 C-3 -0.9 -3 -0.9 0 0 Z " fill="#E6907F" transform="translate(65.3662109375,5.7119140625)"/>
<path d="M0 0 C4.96 2.28 9.66 5.05 14.4 7.75 C15.46 8.34 16.52 8.94 17.61 9.55 C18.62 10.12 19.63 10.69 20.66 11.28 C21.59 11.8 22.51 12.32 23.46 12.86 C25.72 14.25 25.72 14.25 27.72 16.25 C28.28 20.57 28.34 24.91 28.42 29.26 C28.45 30.7 28.5 32.14 28.58 33.59 C29.21 45.45 29.21 45.45 25.76 49.6 C23.17 51.45 20.57 52.85 17.72 54.25 C16.14 55.22 14.57 56.2 13.01 57.19 C11.5 58.07 9.98 58.94 8.47 59.81 C7.7 60.27 6.94 60.73 6.15 61.21 C0.56 64.4 0.56 64.4 -3.64 63.65 C-6.28 62.25 -6.28 62.25 -9.28 60.25 C-9.51 57.46 -9.57 54.9 -9.47 52.12 C-9.45 50.99 -9.45 50.99 -9.43 49.84 C-9.4 47.97 -9.34 46.11 -9.28 44.25 C-8.54 44.56 -7.8 44.87 -7.03 45.19 C-6.13 45.54 -5.22 45.89 -4.28 46.25 C-3.64 46.51 -2.99 46.78 -2.33 47.05 C0.82 47.36 2.7 45.98 5.4 44.44 C6.38 43.89 7.35 43.35 8.35 42.79 C10.82 41.47 10.82 41.47 11.72 39.25 C11.79 36.36 11.81 33.51 11.78 30.62 C11.77 29.82 11.77 29.02 11.76 28.19 C11.75 26.21 11.73 24.23 11.72 22.25 C10.96 21.96 10.21 21.68 9.43 21.39 C7.12 20.42 5.28 19.38 3.22 18 C-0.04 15.86 -0.04 15.86 -2.68 17.03 C-3.54 17.43 -4.4 17.84 -5.28 18.25 C-6.16 18.5 -7.03 18.75 -7.93 19.01 C-10.99 20.1 -12.93 20.98 -15.28 23.25 C-16.48 28.31 -16.51 33.07 -16.28 38.25 C-16.61 38.25 -16.94 38.25 -17.28 38.25 C-17.41 37.62 -17.53 37 -17.65 36.35 C-17.82 35.53 -17.99 34.72 -18.16 33.87 C-18.32 33.06 -18.48 32.25 -18.65 31.41 C-19.15 29.06 -19.15 29.06 -21.28 27.25 C-21.28 26.26 -21.28 25.27 -21.28 24.25 C-21.94 24.25 -22.6 24.25 -23.28 24.25 C-23.28 22.93 -23.28 21.61 -23.28 20.25 C-23.94 20.25 -24.6 20.25 -25.28 20.25 C-25.28 18.6 -25.28 16.95 -25.28 15.25 C-26.27 14.92 -27.26 14.59 -28.28 14.25 C-24.33 11.93 -20.37 9.62 -16.41 7.31 C-15.28 6.65 -14.15 5.99 -12.99 5.31 C-11.92 4.68 -10.84 4.06 -9.73 3.41 C-8.73 2.83 -7.74 2.25 -6.71 1.65 C-2.45 -0.81 -2.45 -0.81 0 0 Z " fill="#E65FC5" transform="translate(65.284423828125,31.751953125)"/>
<path d="M0 0 C3 3.75 3 3.75 3 6 C4.32 6.33 5.64 6.66 7 7 C7 8.32 7 9.64 7 11 C6.18 11.47 5.36 11.94 4.51 12.42 C1.44 14.17 -1.62 15.92 -4.69 17.67 C-6.01 18.43 -7.34 19.18 -8.66 19.94 C-10.57 21.03 -12.48 22.12 -14.39 23.21 C-14.97 23.54 -15.56 23.88 -16.16 24.22 C-17.78 25.14 -19.39 26.07 -21 27 C-21.95 27.38 -22.89 27.76 -23.87 28.14 C-26.4 30.35 -26.38 30.96 -26.66 34.2 C-26.7 35.96 -26.71 37.72 -26.71 39.48 C-26.72 40.41 -26.74 41.34 -26.75 42.29 C-26.8 45.26 -26.8 48.22 -26.81 51.19 C-26.84 53.2 -26.86 55.21 -26.89 57.22 C-26.95 62.14 -26.98 67.07 -27 72 C-27.33 72 -27.66 72 -28 72 C-28 67.05 -28 62.1 -28 57 C-28.99 57 -29.98 57 -31 57 C-31 56.34 -31 55.68 -31 55 C-34.96 54.5 -34.96 54.5 -39 54 C-39.22 49.41 -39.39 44.82 -39.49 40.23 C-39.54 38.67 -39.6 37.11 -39.68 35.55 C-40.31 22.66 -40.31 22.66 -37.24 18.77 C-34.89 17.18 -32.62 16.08 -30 15 C-28.62 14.22 -27.26 13.43 -25.9 12.62 C-24.58 11.89 -23.26 11.16 -21.94 10.44 C-17.66 8.08 -13.45 5.71 -9.38 3 C-6.08 1.05 -3.79 0.28 0 0 Z " fill="#956DE8" transform="translate(53,13)"/>
<path d="M0 0 C0.33 0 0.66 0 1 0 C1 1.98 1 3.96 1 6 C1.66 6 2.32 6 3 6 C4.03 7.65 5.02 9.32 6 11 C6.56 11.56 7.11 12.11 7.69 12.69 C8.12 13.12 8.55 13.55 9 14 C9 14.66 9 15.32 9 16 C9.66 16 10.32 16 11 16 C11.5 17.98 11.5 17.98 12 20 C11.32 20.38 10.64 20.75 9.94 21.14 C-5.89 29.91 -5.89 29.91 -21.5 39.06 C-22.09 39.42 -22.68 39.77 -23.28 40.13 C-25.77 41.63 -28.24 43.16 -30.69 44.73 C-36.22 48.13 -36.22 48.13 -40.38 47.44 C-43 46 -43 46 -46 44 C-46.22 41.21 -46.28 38.65 -46.19 35.88 C-46.17 35.12 -46.16 34.37 -46.15 33.59 C-46.11 31.73 -46.06 29.86 -46 28 C-45.26 28.31 -44.52 28.62 -43.75 28.94 C-42.39 29.46 -42.39 29.46 -41 30 C-40.41 30.25 -39.83 30.51 -39.22 30.77 C-35.71 31.13 -33.66 29.46 -30.66 27.7 C-30.06 27.35 -29.45 27 -28.83 26.64 C-26.9 25.52 -24.98 24.39 -23.06 23.25 C-21.77 22.5 -20.49 21.75 -19.2 21 C-12.7 17.24 -12.7 17.24 -6.35 13.26 C-4 12 -4 12 0 12 C0 8.04 0 4.08 0 0 Z " fill="#C65DD2" transform="translate(102,74)"/>
<path d="M0 0 C0.33 0 0.66 0 1 0 C1.33 11.55 1.66 23.1 2 35 C2.66 35 3.32 35 4 35 C4.27 35.95 4.54 36.9 4.81 37.88 C5.75 41.25 5.75 41.25 9 43 C9.19 46.62 9.19 46.62 9 50 C9.66 50 10.32 50 11 50 C11.33 50.66 11.66 51.32 12 52 C14.02 52.65 14.02 52.65 16 53 C16 53.66 16 54.32 16 55 C17.32 55.33 18.64 55.66 20 56 C20 56.66 20 57.32 20 58 C21.98 58 23.96 58 26 58 C26.2 58.64 26.41 59.28 26.62 59.93 C26.89 60.76 27.16 61.59 27.44 62.44 C27.7 63.26 27.97 64.08 28.25 64.93 C28.82 66.96 28.82 66.96 30 68 C30.99 67.01 30.99 67.01 32 66 C32 67.98 32 69.96 32 72 C32.66 72 33.32 72 34 72 C34.33 72.99 34.66 73.98 35 75 C35.33 57.18 35.66 39.36 36 21 C36.66 20.67 37.32 20.34 38 20 C37.67 39.47 37.34 58.94 37 79 C33.1 78.03 30.44 76.74 26.95 74.8 C26.37 74.48 25.8 74.16 25.2 73.83 C23.98 73.15 22.76 72.47 21.55 71.79 C19.71 70.76 17.86 69.74 16.02 68.72 C14.83 68.06 13.64 67.4 12.45 66.73 C11.38 66.14 10.31 65.54 9.21 64.93 C8.15 64.29 7.09 63.66 6 63 C5.36 62.71 4.72 62.42 4.06 62.12 C1.84 60.94 0.53 60.01 -1 58 C-1.92 53.59 -1.67 49.3 -1.46 44.82 C-1.43 43.54 -1.4 42.26 -1.37 40.94 C-1.28 37.55 -1.15 34.16 -1.02 30.77 C-0.88 27.31 -0.79 23.84 -0.7 20.37 C-0.5 13.58 -0.27 6.79 0 0 Z " fill="#6B6CD4" transform="translate(13,34)"/>
<path d="M0 0 C0.66 0.33 1.32 0.66 2 1 C1.98 2.18 1.95 3.36 1.93 4.58 C1.91 6.14 1.89 7.69 1.88 9.25 C1.86 10.03 1.84 10.8 1.82 11.61 C1.74 17.08 1.74 17.08 4 22 C4.66 22 5.32 22 6 22 C6 22.99 6 23.98 6 25 C5.34 25 4.68 25 4 25 C4 26.32 4 27.64 4 29 C7.47 28.5 7.47 28.5 11 28 C6.67 31.71 2 34.55 -2.94 37.38 C-3.72 37.85 -4.51 38.33 -5.32 38.82 C-11.15 42.15 -11.15 42.15 -15.38 41.41 C-18 40 -18 40 -21 38 C-21.22 35.21 -21.28 32.65 -21.19 29.88 C-21.17 29.12 -21.16 28.37 -21.15 27.59 C-21.11 25.73 -21.06 23.86 -21 22 C-20.26 22.31 -19.52 22.62 -18.75 22.94 C-17.39 23.46 -17.39 23.46 -16 24 C-15.35 24.26 -14.71 24.53 -14.04 24.8 C-10.89 25.11 -9.02 23.73 -6.31 22.19 C-5.34 21.64 -4.37 21.1 -3.36 20.54 C-0.9 19.22 -0.9 19.22 0 17 C0.07 14.12 0.09 11.26 0.06 8.38 C0.06 7.57 0.05 6.77 0.05 5.95 C0.04 3.96 0.02 1.98 0 0 Z " fill="#BA5FD5" transform="translate(77,54)"/>
<path d="M0 0 C3.89 4.86 4.69 6.42 6 12 C6.66 12 7.32 12 8 12 C15.7 22.44 13.13 38.57 13 51 C12.34 50.67 11.68 50.34 11 50 C11.33 49.34 11.66 48.68 12 48 C11.34 48 10.68 48 10 48 C9.92 47.38 9.84 46.76 9.75 46.12 C9.21 43.82 9.21 43.82 7 43 C5 42 5 42 4.25 39.88 C4.13 38.95 4.13 38.95 4 38 C3.34 38 2.68 38 2 38 C1.67 39.98 1.34 41.96 1 44 C0.34 43.67 -0.32 43.34 -1 43 C-0.67 28.81 -0.34 14.62 0 0 Z " fill="#E38588" transform="translate(101,42)"/>
<path d="M0 0 C3 3.75 3 3.75 3 6 C4.32 6.33 5.64 6.66 7 7 C7 8.32 7 9.64 7 11 C3.07 13.26 -0.86 15.52 -4.8 17.78 C-6.14 18.55 -7.47 19.32 -8.81 20.09 C-10.73 21.2 -12.66 22.3 -14.58 23.4 C-15.18 23.75 -15.78 24.09 -16.39 24.45 C-18.91 25.89 -21.23 27.08 -24 28 C-23.34 26.02 -22.68 24.04 -22 22 C-21.01 22 -20.02 22 -19 22 C-19.66 19.36 -20.32 16.72 -21 14 C-22.65 14 -24.3 14 -26 14 C-22.06 10.7 -17.95 7.97 -13.56 5.31 C-12.92 4.91 -12.28 4.51 -11.62 4.09 C-7.74 1.74 -4.6 0.42 0 0 Z " fill="#D65DCA" transform="translate(53,13)"/>
<path d="M0 0 C5.45 1.53 9.93 4.11 14.75 7 C15.9 7.68 15.9 7.68 17.07 8.37 C22.72 11.72 22.72 11.72 25 14 C25.23 17.07 25.23 17.07 25.2 20.98 C25.19 21.66 25.19 22.35 25.19 23.05 C25.18 25.24 25.15 27.43 25.12 29.62 C25.11 31.11 25.11 32.59 25.1 34.08 C25.08 37.72 25.04 41.36 25 45 C24.67 45 24.34 45 24 45 C23.34 40.38 22.68 35.76 22 31 C21.01 30.67 20.02 30.34 19 30 C15 24.63 15 24.63 15 22 C14.01 21.67 13.02 21.34 12 21 C11.88 19.91 11.75 18.81 11.62 17.69 C11.25 13.93 11.25 13.93 9 11 C8.01 10.67 7.02 10.34 6 10 C6 9.34 6 8.68 6 8 C5.38 7.79 4.76 7.59 4.12 7.38 C1.15 5.45 0.87 3.33 0 0 Z " fill="#ED70B1" transform="translate(68,34)"/>
<path d="M0 0 C4.75 1.9 4.75 1.9 7 2.81 C9.2 3.22 9.2 3.22 11.5 1.5 C14 0 14 0 16.31 0.31 C16.87 0.54 17.43 0.77 18 1 C18 2.98 18 4.96 18 7 C18.66 7 19.32 7 20 7 C20 7.66 20 8.32 20 9 C22.47 9.5 22.47 9.5 25 10 C20.29 14.22 14.86 17.64 9 20 C5.01 19.43 3.33 18.22 0 16 C-0.22 13.21 -0.28 10.65 -0.19 7.88 C-0.17 7.12 -0.16 6.37 -0.15 5.59 C-0.11 3.73 -0.06 1.86 0 0 Z " fill="#9868DD" transform="translate(56,102)"/>
<path d="M0 0 C0 0.66 0 1.32 0 2 C0.64 2.25 1.28 2.49 1.94 2.75 C4 4 4 4 4.81 5.94 C5 8 5 8 4 11 C2.68 11.47 1.35 11.88 0 12.25 C-2.29 13.11 -2.29 13.11 -4 15 C-5.05 20.03 -5.1 24.88 -5 30 C-5.33 30 -5.66 30 -6 30 C-6.12 29.37 -6.24 28.75 -6.37 28.1 C-6.62 26.88 -6.62 26.88 -6.88 25.62 C-7.04 24.81 -7.2 24 -7.37 23.16 C-7.87 20.81 -7.87 20.81 -10 19 C-10 18.01 -10 17.02 -10 16 C-10.66 16 -11.32 16 -12 16 C-12 14.68 -12 13.36 -12 12 C-12.66 12 -13.32 12 -14 12 C-14 10.35 -14 8.7 -14 7 C-14.99 6.67 -15.98 6.34 -17 6 C-6.81 -0.89 -6.81 -0.89 0 0 Z " fill="#C65ED5" transform="translate(54,40)"/>
<path d="M0 0 C0.33 0 0.66 0 1 0 C1 1.98 1 3.96 1 6 C1.66 6 2.32 6 3 6 C4.03 7.65 5.02 9.32 6 11 C6.56 11.56 7.11 12.11 7.69 12.69 C8.12 13.12 8.55 13.55 9 14 C9 14.66 9 15.32 9 16 C9.66 16 10.32 16 11 16 C11.33 17.32 11.66 18.64 12 20 C4.71 24.57 4.71 24.57 0 24 C-0.33 23.01 -0.66 22.02 -1 21 C-1.66 21 -2.32 21 -3 21 C-3 20.34 -3 19.68 -3 19 C-3.66 19 -4.32 19 -5 19 C-5 18.01 -5 17.02 -5 16 C-5.66 15.67 -6.32 15.34 -7 15 C-5.75 13.5 -5.75 13.5 -4 12 C-2.68 12 -1.36 12 0 12 C0 8.04 0 4.08 0 0 Z " fill="#EB66BF" transform="translate(102,74)"/>
<path d="M0 0 C0.99 2.97 1.98 5.94 3 9 C2.01 9 1.02 9 0 9 C-0.65 10.45 -0.65 10.45 -1.31 11.94 C-3 15 -3 15 -6 16 C-6.66 16.66 -7.32 17.32 -8 18 C-11 13.38 -11 13.38 -11 10 C-11.66 10 -12.32 10 -13 10 C-13 9.01 -13 8.02 -13 7 C-14.32 6.67 -15.64 6.34 -17 6 C-6.81 -0.89 -6.81 -0.89 0 0 Z " fill="#B162D9" transform="translate(32,27)"/>
<path d="M0 0 C0.33 0 0.66 0 1 0 C1.03 0.6 1.05 1.21 1.08 1.83 C1.36 7.05 1.36 7.05 4.06 11.38 C4.7 11.91 5.34 12.45 6 13 C6 13.99 6 14.98 6 16 C6.66 16 7.32 16 8 16 C8.66 17.32 9.32 18.64 10 20 C10.66 19.01 11.32 18.02 12 17 C12 22.94 12 28.88 12 35 C11.34 34.67 10.68 34.34 10 34 C10.33 33.34 10.66 32.68 11 32 C10.34 32 9.68 32 9 32 C8.92 31.38 8.84 30.76 8.75 30.12 C8.21 27.82 8.21 27.82 6 27 C4 26 4 26 3.25 23.88 C3.17 23.26 3.08 22.64 3 22 C2.34 22 1.68 22 1 22 C0.03 17.14 -0.12 12.55 -0.06 7.62 C-0.06 6.89 -0.05 6.15 -0.05 5.39 C-0.04 3.6 -0.02 1.8 0 0 Z " fill="#F07BA6" transform="translate(102,58)"/>
<path d="M0 0 C2.92 1.07 4.78 1.78 7 4 C7.23 7.07 7.23 7.07 7.2 10.98 C7.19 11.66 7.19 12.35 7.19 13.05 C7.18 15.24 7.15 17.43 7.12 19.62 C7.11 21.11 7.11 22.59 7.1 24.08 C7.08 27.72 7.04 31.36 7 35 C6.67 35 6.34 35 6 35 C5.67 28.07 5.34 21.14 5 14 C4.34 14 3.68 14 3 14 C3 13.34 3 12.68 3 12 C2.34 12 1.68 12 1 12 C-1.23 7.67 -0.92 4.72 0 0 Z " fill="#BB6585" transform="translate(86,44)"/>
<path d="M0 0 C1.32 0 2.64 0 4 0 C6.57 2.57 6.54 4.48 7 8 C6.2 8.45 5.39 8.91 4.56 9.38 C1.91 10.75 1.91 10.75 1 13 C0.34 13 -0.32 13 -1 13 C-1 12.34 -1 11.68 -1 11 C-1.66 11 -2.32 11 -3 11 C-5.04 8.09 -6 6.6 -6 3 C-3.53 3.5 -3.53 3.5 -1 4 C-1 4.66 -1 5.32 -1 6 C-0.34 6 0.32 6 1 6 C1 4.68 1 3.36 1 2 C0.34 1.67 -0.32 1.34 -1 1 C-0.67 0.67 -0.34 0.34 0 0 Z " fill="#CA5FD8" transform="translate(73,77)"/>
<path d="M0 0 C0.99 0.5 0.99 0.5 2 1 C1.98 1.59 1.95 2.18 1.93 2.79 C1.57 9.27 1.57 9.27 4 15 C6.96 16.03 9.91 16.57 13 17 C11.38 18.62 11.38 18.62 9 20 C5.41 19.19 3.07 18.05 0 16 C-0.22 13.21 -0.28 10.65 -0.19 7.88 C-0.17 7.12 -0.16 6.37 -0.15 5.59 C-0.11 3.73 -0.06 1.86 0 0 Z " fill="#8654AC" transform="translate(56,76)"/>
<path d="M0 0 C0.99 0.5 0.99 0.5 2 1 C2 5.62 2 10.24 2 15 C5.63 15.66 9.26 16.32 13 17 C11.68 17.99 10.36 18.98 9 20 C5.41 19.19 3.07 18.05 0 16 C-0.22 13.21 -0.28 10.65 -0.19 7.88 C-0.17 7.12 -0.16 6.37 -0.15 5.59 C-0.11 3.73 -0.06 1.86 0 0 Z " fill="#6D59AD" transform="translate(56,102)"/>
<path d="M0 0 C0.66 0.33 1.32 0.66 2 1 C1.98 2.18 1.95 3.36 1.93 4.58 C1.91 6.14 1.89 7.69 1.88 9.25 C1.86 10.03 1.84 10.8 1.82 11.61 C1.74 17.08 1.74 17.08 4 22 C4.66 22 5.32 22 6 22 C6 22.99 6 23.98 6 25 C5.01 24.67 4.02 24.34 3 24 C3 23.01 3 22.02 3 21 C-0.96 21.5 -0.96 21.5 -5 22 C-4.18 21.36 -3.36 20.71 -2.52 20.05 C0.85 15.97 0.59 13.29 0.31 8.19 C0.29 7.4 0.27 6.61 0.24 5.8 C0.19 3.87 0.1 1.93 0 0 Z " fill="#96478F" transform="translate(77,54)"/>
<path d="M0 0 C4.54 1.35 8.32 3.19 12.38 5.62 C13.43 6.26 14.49 6.89 15.59 7.54 C16.38 8.02 17.18 8.5 18 9 C15.51 9.69 13.62 10 11 10 C11 9.01 11 8.02 11 7 C10.03 6.88 9.06 6.75 8.06 6.62 C7.05 6.42 6.04 6.21 5 6 C4.67 5.34 4.34 4.68 4 4 C3.01 4 2.02 4 1 4 C0.67 2.68 0.34 1.36 0 0 Z " fill="#D56B9D" transform="translate(68,34)"/>
<path d="M0 0 C-6.75 4 -6.75 4 -9 4 C-8.67 2.68 -8.34 1.36 -8 0 C-4.95 -0.98 -3.05 -0.98 0 0 Z " fill="#D05EA9" transform="translate(114,94)"/>
<path d="M0 0 C0.66 0 1.32 0 2 0 C2 0.66 2 1.32 2 2 C3.98 1.67 5.96 1.34 8 1 C3.25 5 3.25 5 1 5 C0.67 3.35 0.34 1.7 0 0 Z " fill="#D05BAD" transform="translate(52,22)"/>
</svg>
