<?xml version="1.0" encoding="UTF-8"?>
<svg version="1.1" xmlns="http://www.w3.org/2000/svg" width="20" height="20">
<path d="M0 0 C6.6 0 13.2 0 20 0 C20 6.6 20 13.2 20 20 C13.4 20 6.8 20 0 20 C0 13.4 0 6.8 0 0 Z " fill="#13062F" transform="translate(0,0)"/>
<path d="M0 0 C0 6.6 0 13.2 0 20 C-3.63 20 -7.26 20 -11 20 C-11.33 19.34 -11.66 18.68 -12 18 C-11.21625 17.236875 -10.4325 16.47375 -9.625 15.6875 C-6.92742283 13.09108195 -6.92742283 13.09108195 -5 10 C-6.32 9.67 -7.64 9.34 -9 9 C-8.67 6.69 -8.34 4.38 -8 2 C-8.66 1.67 -9.32 1.34 -10 1 C-8 0 -8 0 0 0 Z " fill="#12042D" transform="translate(20,0)"/>
<path d="M0 0 C0.66 0 1.32 0 2 0 C1.67 1.98 1.34 3.96 1 6 C2.65 6 4.3 6 6 6 C4.38731308 8.71224618 2.75098126 11.37352812 1 14 C0.01 14 -0.98 14 -2 14 C-1.67 12.02 -1.34 10.04 -1 8 C-2.65 8 -4.3 8 -6 8 C-2.25 2.25 -2.25 2.25 0 0 Z " fill="#6EEFE5" transform="translate(10,3)"/>
</svg>
